<?xml version="1.0" encoding="UTF-8"?>
<svg width="32px" height="32px" viewBox="0 0 32 32" version="1.1" xmlns="http://www.w3.org/2000/svg" xmlns:xlink="http://www.w3.org/1999/xlink">
    <!-- Generator: Sketch 50.2 (55047) - http://www.bohemiancoding.com/sketch -->
    <title>FRLogo</title>
    <desc>Created with Sketch.</desc>
    <defs></defs>
    <g id="refinement" stroke="none" stroke-width="1" fill="none" fill-rule="evenodd">
        <g id="newicons-copy" transform="translate(-16.000000, -16.000000)">
            <g id="Group-86">
                <g id="FRLogo" transform="translate(16.000000, 16.000000)">
                    <path d="M16,0 L29.8666667,0 C31.0448741,-2.164332e-16 32,0.955125867 32,2.13333333 L32,16 C32,24.836556 24.836556,32 16,32 L16,32 C7.163444,32 1.082166e-15,24.836556 0,16 L0,16 C-1.082166e-15,7.163444 7.163444,1.623249e-15 16,0 Z" id="Rectangle-23" fill="#7D61DC"></path>
                    <path d="M9.155547,19.096434 L8,17.9424448 L9.33946457,14.8965112 C9.63142872,14.2325866 10.2877806,13.8028739 11.0138827,13.8002723 L12.778724,13.793949 C13.2693409,13.7921912 13.7202312,13.5242767 13.9558459,13.0945146 L15.0119907,11.1681031 C15.8857238,9.57441112 17.497426,8.52050633 19.3095033,8.35792607 L23.2697536,8.00261095 C23.3083476,7.99914828 23.3471692,7.99903873 23.3857822,8.00228353 C23.754677,8.03328321 24.0285952,8.35746176 23.9975955,8.72635659 L23.6631919,12.7057433 C23.5003923,14.5153766 22.4450652,16.1249055 20.8492217,16.9974608 L18.9202097,18.0521818 C18.4898676,18.2874789 18.221591,18.7377621 18.2198308,19.227719 L18.213499,20.9901811 C18.2108939,21.7153029 17.7806015,22.3707693 17.1157804,22.66234 L14.0657324,24 L12.9120392,22.8478621 L13.1248913,22.1014325 C13.3840251,21.1927026 13.1299057,20.2150926 12.4608875,19.5469763 C11.7918698,18.8788605 10.8129418,18.6250841 9.90298665,18.8838681 L9.155547,19.096434 Z M19.1298504,14.3745178 C19.9850372,14.3745178 20.678303,13.6821865 20.678303,12.8281526 C20.678303,11.9741187 19.9850372,11.2817874 19.1298504,11.2817874 C18.2746636,11.2817874 17.5813978,11.9741187 17.5813978,12.8281526 C17.5813978,13.6821865 18.2746636,14.3745178 19.1298504,14.3745178 Z" id="Combined-Shape" fill="#FFFFFF" fill-rule="nonzero"></path>
                </g>
            </g>
        </g>
    </g>
</svg>