<!-- Generated by IcoMoon.io -->
<svg version="1.1" xmlns="http://www.w3.org/2000/svg" width="33" height="32" viewBox="0 0 33 32">
<title>new-tab</title>
<path d="M31.94 1.072l0.067 10.64c0.003 0.556-0.476 1.005-1.068 1.008-0.593 0.003-1.075-0.445-1.077-1.001l-0.051-8.11-17.354 17.417c-0.407 0.409-1.070 0.413-1.481 0.006-0.411-0.405-0.414-1.066-0.006-1.474l17.341-17.406-8.162 0.050c-0.556 0.004-1.009-0.471-1.012-1.062-0.002-0.59 0.447-1.070 1.003-1.073l10.717-0.066c0.002 0 0.004-0.001 0.006-0.001 0.003-0.001 0.005 0.001 0.007 0.001h0.059c0.239-0.001 0.448 0.098 0.621 0.243 0.027 0.021 0.059 0.035 0.082 0.060 0.021 0.021 0.034 0.049 0.053 0.071 0.15 0.172 0.254 0.383 0.255 0.623v0.060c0 0.002 0.001 0.004 0.001 0.006 0 0.003-0.001 0.005-0.001 0.007zM2.133 5.323v23.468c0 0.588 0.477 1.067 1.067 1.067h23.467c0.589 0 1.067-0.479 1.067-1.067v-13.868h2.133v14.934c0 1.178-0.956 2.133-2.133 2.133h-25.6c-1.179 0-2.133-0.956-2.133-2.133v-25.6c0-1.179 0.955-2.134 2.133-2.134h14.933v2.134h-13.867c-0.59 0-1.067 0.477-1.067 1.066z"></path>
</svg>
