<!-- Generated by IcoMoon.io -->
<svg version="1.1" xmlns="http://www.w3.org/2000/svg" width="32" height="32" viewBox="0 0 64 64" fill='#ADAFB5'>
<title>search</title>
<path d="M31.238 31.666c-0.36 0.361-0.945 0.361-1.306 0l-8.643-8.643c-2.208 1.907-5.051 3.101-8.198 3.101-6.963 0-12.606-5.643-12.606-12.606s5.643-12.605 12.606-12.605c6.962 0 12.606 5.642 12.606 12.605 0 3.148-1.195 5.99-3.102 8.199l8.643 8.643c0.36 0.36 0.36 0.945 0 1.306zM23.758 13.519c0-5.89-4.777-10.667-10.667-10.667-5.892 0-10.667 4.777-10.667 10.667s4.775 10.668 10.667 10.668c5.89 0 10.667-4.777 10.667-10.668z"></path>
</svg>
