<?xml version="1.0" encoding="UTF-8" standalone="no"?>
<svg
   xmlns:dc="http://purl.org/dc/elements/1.1/"
   xmlns:cc="http://creativecommons.org/ns#"
   xmlns:rdf="http://www.w3.org/1999/02/22-rdf-syntax-ns#"
   xmlns:svg="http://www.w3.org/2000/svg"
   xmlns="http://www.w3.org/2000/svg"
   version="1.1"
   viewBox="0 0 586 559"
   data-name="logo art"
   id="logo_art" width="64px" height="64px">
  <metadata
     id="metadata27">
    <rdf:RDF>
      <cc:Work
         rdf:about="">
        <dc:format>image/svg+xml</dc:format>
        <dc:type
           rdf:resource="http://purl.org/dc/dcmitype/StillImage" />
      </cc:Work>
    </rdf:RDF>
  </metadata>
  <defs
     id="defs4">
    <style
       id="style2">.cls-1{fill:#fc6d26;}.cls-2{fill:#e24329;}.cls-3{fill:#fca326;}</style>
  </defs>
  <title
     id="title6">gitlab-icon-rgb</title>
  <g
     id="g44">
    <path
       d="M461.17,301.83l-18.91-58.12L404.84,128.43a6.47,6.47,0,0,0-12.27,0L355.15,243.64H230.82L193.4,128.43a6.46,6.46,0,0,0-12.26,0L143.78,243.64l-18.91,58.19a12.88,12.88,0,0,0,4.66,14.39L293,435,456.44,316.22a12.9,12.9,0,0,0,4.73-14.39"
       class="cls-1"
       id="path46" />
  </g>
  <g
     id="g48">
    <path
       d="M293,434.91h0l62.16-191.28H230.87L293,434.91Z"
       class="cls-2"
       id="path50" />
  </g>
  <g
     id="g56">
    <path
       d="M293,434.91,230.82,243.63h-87L293,434.91Z"
       class="cls-1"
       id="path58" />
  </g>
  <g
     id="g64">
    <path
       d="M143.75,243.69h0l-18.91,58.12a12.88,12.88,0,0,0,4.66,14.39L293,435,143.75,243.69Z"
       class="cls-3"
       id="path66" />
  </g>
  <g
     id="g72">
    <path
       d="M143.78,243.69h87.11L193.4,128.49a6.47,6.47,0,0,0-12.27,0l-37.35,115.2Z"
       class="cls-2"
       id="path74" />
  </g>
  <g
     id="g76">
    <path
       d="M293,434.91l62.16-191.28H442.3L293,434.91Z"
       class="cls-1"
       id="path78" />
  </g>
  <g
     id="g80">
    <path
       d="M442.24,243.69h0l18.91,58.12a12.85,12.85,0,0,1-4.66,14.39L293,434.91l149.2-191.22Z"
       class="cls-3"
       id="path82" />
  </g>
  <g
     id="g84">
    <path
       d="M442.28,243.69h-87.1l37.42-115.2a6.46,6.46,0,0,1,12.26,0l37.42,115.2Z"
       class="cls-2"
       id="path86" />
  </g>
</svg>
